<?xml version="1.0" encoding="utf-8"?>
<svg id="master-artboard" viewBox="0 0 99 33" xmlns="http://www.w3.org/2000/svg" width="99px" height="33px" version="1.1" style="shape-rendering:geometricPrecision; text-rendering:geometricPrecision; image-rendering:optimizeQuality; fill-rule:evenodd; clip-rule:evenodd"><defs><style id="ee-google-fonts">@import url(https://fonts.googleapis.com/css?family=Alegreya:400,400italic,700,700italic,900,900italic);</style></defs><rect id="ee-background" x="0" y="0" width="99" height="33" style="fill: white; fill-opacity: 0; pointer-events: none;"/><path d="M 26.605966567993164 30.989999771118164 L 22.075965881347656 24.209999084472656 C 21.495967864990234 23.356666564941406 20.825965881347656 22.696666717529297 20.065967559814453 22.229999542236328 C 19.305967330932617 21.770000457763672 18.395967483520508 21.469999313354492 17.335966110229492 21.329999923706055 L 17.265966415405273 21.200000762939453 L 17.465967178344727 19.850000381469727 C 18.139299392700195 19.8700008392334 18.77596664428711 19.893333435058594 19.375967025756836 19.920000076293945 C 19.902633666992188 19.940000534057617 20.44930076599121 19.950000762939453 21.015966415405273 19.950000762939453 C 21.58263397216797 19.950000762939453 22.062633514404297 19.950000762939453 22.45596694946289 19.950000762939453 C 23.12263298034668 19.950000762939453 23.745967864990234 19.940000534057617 24.325965881347656 19.920000076293945 C 24.89929962158203 19.893333435058594 25.395965576171875 19.856666564941406 25.815967559814453 19.809999465942383 C 26.29596710205078 19.763334274291992 26.732633590698242 19.71666717529297 27.125967025756836 19.670000076293945 L 27.235965728759766 19.920000076293945 L 27.125967025756836 21.1299991607666 C 26.159299850463867 21.196666717529297 25.46929931640625 21.323333740234375 25.055967330932617 21.510000228881836 C 24.635967254638672 21.690000534057617 24.425966262817383 21.976667404174805 24.425966262817383 22.3700008392334 C 24.425966262817383 22.649999618530273 24.785966873168945 23.373332977294922 25.505966186523438 24.540000915527344 C 26.21929931640625 25.700000762939453 27.162633895874023 27.170000076293945 28.335968017578125 28.950000762939453 C 28.72930145263672 28.416667938232422 29.18596649169922 27.810001373291016 29.70596694946289 27.130001068115234 C 30.225967407226562 26.450000762939453 30.722633361816406 25.786666870117188 31.195966720581055 25.139999389648438 C 31.669300079345703 24.49333381652832 32.06596755981445 23.90999984741211 32.38596725463867 23.389999389648438 C 32.71263122558594 22.876667022705078 32.87596893310547 22.489999771118164 32.87596893310547 22.229999542236328 C 32.87596893310547 21.90999984741211 32.71929931640625 21.6733341217041 32.405967712402344 21.520000457763672 C 32.09263229370117 21.373332977294922 31.579299926757812 21.266666412353516 30.865966796875 21.200000762939453 L 30.79596710205078 21.059999465942383 L 31.005966186523438 19.709999084472656 C 31.492633819580078 19.75666618347168 31.965967178344727 19.803333282470703 32.425968170166016 19.850000381469727 C 32.819297790527344 19.89666748046875 33.232635498046875 19.9233341217041 33.66596603393555 19.93000030517578 C 34.10596466064453 19.94333267211914 34.48929977416992 19.950000762939453 34.81596755981445 19.950000762939453 C 35.13596725463867 19.950000762939453 35.499298095703125 19.94333267211914 35.905967712402344 19.93000030517578 C 36.30596923828125 19.9233341217041 36.6693000793457 19.906665802001953 36.99596405029297 19.8799991607666 C 37.38929748535156 19.860000610351562 37.779300689697266 19.836666107177734 38.16596603393555 19.809999465942383 L 38.30596923828125 20.049999237060547 L 38.10596466064453 21.329999923706055 C 37.5726318359375 21.450000762939453 37.12263488769531 21.59000015258789 36.75596618652344 21.75 C 36.382633209228516 21.90999984741211 36.02263259887695 22.1299991607666 35.67596435546875 22.40999984741211 C 35.32929992675781 22.683332443237305 34.982635498046875 23.023332595825195 34.63596725463867 23.43000030517578 C 34.28929901123047 23.829999923706055 33.87596893310547 24.329999923706055 33.395965576171875 24.93000030517578 L 29.20596694946289 30.229999542236328 L 34.25596618652344 37.599998474121094 C 34.882633209228516 38.5 35.55929946899414 39.18333435058594 36.28596496582031 39.650001525878906 C 37.01263427734375 40.11000061035156 37.9193000793457 40.38666534423828 39.00596618652344 40.47999954223633 L 39.06596755981445 40.619998931884766 L 38.825965881347656 42.099998474121094 C 38.29930114746094 42.099998474121094 37.779300689697266 42.09000015258789 37.265968322753906 42.06999969482422 C 36.83263397216797 42.0433349609375 36.365966796875 42.026668548583984 35.865966796875 42.02000045776367 C 35.37263488769531 42.00666809082031 34.929298400878906 42 34.53596496582031 42 C 34.04930114746094 42 33.49596405029297 42.0099983215332 32.87596893310547 42.029998779296875 C 32.249298095703125 42.05666732788086 31.659299850463867 42.09333419799805 31.105966567993164 42.13999938964844 C 30.459300994873047 42.186668395996094 29.812633514404297 42.233333587646484 29.165966033935547 42.279998779296875 L 29.065967559814453 42.029998779296875 L 29.20596694946289 40.68000030517578 C 30.125967025756836 40.63999938964844 30.805967330932617 40.52666473388672 31.245967864990234 40.34000015258789 C 31.68596649169922 40.1533317565918 31.905967712402344 39.86333465576172 31.905967712402344 39.470001220703125 C 31.905967712402344 39.26333236694336 31.849300384521484 39.040000915527344 31.735965728759766 38.79999923706055 C 31.615966796875 38.5533332824707 31.44263458251953 38.27000045776367 31.215967178344727 37.95000076293945 L 27.43596649169922 32.27000045776367 L 24.255966186523438 36.5 C 23.58930015563965 37.400001525878906 23.125967025756836 38.05666732788086 22.865966796875 38.470001220703125 C 22.612632751464844 38.88333511352539 22.485965728759766 39.253334045410156 22.485965728759766 39.58000183105469 C 22.485965728759766 40.18000030517578 23.155967712402344 40.52666473388672 24.495967864990234 40.619998931884766 L 24.565967559814453 40.75 L 24.325965881347656 42.2400016784668 C 23.83930015563965 42.220001220703125 23.365966796875 42.186668395996094 22.905967712402344 42.13999938964844 C 22.51263427734375 42.09333419799805 22.095966339111328 42.05666732788086 21.655967712402344 42.029998779296875 C 21.222633361816406 42.0099983215332 20.842634201049805 42 20.515966415405273 42 C 20.169300079345703 42 19.799301147460938 42.00666809082031 19.405967712402344 42.02000045776367 C 19.01263427734375 42.026668548583984 18.645967483520508 42.0433349609375 18.305967330932617 42.06999969482422 C 17.885967254638672 42.09000015258789 17.479299545288086 42.11333465576172 17.085966110229492 42.13999938964844 L 16.95596694946289 41.900001525878906 L 17.195966720581055 40.47999954223633 C 18.209300994873047 40.18000030517578 19.135967254638672 39.630001068115234 19.975967407226562 38.83000183105469 C 20.822633743286133 38.03666687011719 21.765966415405273 36.99333190917969 22.805967330932617 35.70000076293945 L 26.605966567993164 30.989999771118164 ZM 45.19011306762695 42 C 44.756778717041016 42 44.30677795410156 42.02333450317383 43.840110778808594 42.06999969482422 C 43.38011169433594 42.11666488647461 42.95344543457031 42.163333892822266 42.56011199951172 42.209999084472656 C 42.12677764892578 42.276668548583984 41.69011306762695 42.3466682434082 41.2501106262207 42.41999816894531 L 41.460113525390625 40.81999969482422 C 41.986778259277344 40.72666549682617 42.42344665527344 40.606666564941406 42.770111083984375 40.459999084472656 C 43.11677932739258 40.30666732788086 43.3934440612793 40.12333297729492 43.60011291503906 39.90999984741211 C 43.80677795410156 39.689998626708984 43.950111389160156 39.40999984741211 44.030113220214844 39.06999969482422 C 44.11677932739258 38.73666763305664 44.16011047363281 38.33000183105469 44.16011047363281 37.849998474121094 L 44.19011306762695 23.309999465942383 C 44.19011306762695 22.56999969482422 44.110111236572266 22.073333740234375 43.950111389160156 21.81999969482422 C 43.79011154174805 21.566667556762695 43.44344711303711 21.440000534057617 42.91011047363281 21.440000534057617 C 42.79677963256836 21.440000534057617 42.67011260986328 21.446666717529297 42.530113220214844 21.459999084472656 C 42.390113830566406 21.46666717529297 42.26344680786133 21.469999313354492 42.15011215209961 21.469999313354492 C 42.01011276245117 21.496665954589844 41.870113372802734 21.510000228881836 41.7301139831543 21.510000228881836 L 41.66011047363281 21.3700008392334 L 41.91011047363281 19.850000381469727 C 42.390113830566406 19.8700008392334 42.860111236572266 19.893333435058594 43.32011413574219 19.920000076293945 C 43.71344757080078 19.940000534057617 44.13677978515625 19.950000762939453 44.590110778808594 19.950000762939453 C 45.03677749633789 19.950000762939453 45.42344665527344 19.950000762939453 45.75011444091797 19.950000762939453 C 46.07011413574219 19.950000762939453 46.460113525390625 19.94333267211914 46.92011260986328 19.93000030517578 C 47.38677978515625 19.9233341217041 47.83677673339844 19.906665802001953 48.270111083984375 19.8799991607666 C 48.783447265625 19.860000610351562 49.303443908691406 19.836666107177734 49.83011245727539 19.809999465942383 C 52.050113677978516 19.809999465942383 53.7401123046875 20.260000228881836 54.90011215209961 21.15999984741211 C 56.06678009033203 22.059999465942383 56.65011215209961 23.363332748413086 56.65011215209961 25.06999969482422 C 56.65011215209961 26.22333335876465 56.303443908691406 27.26333236694336 55.61011505126953 28.189998626708984 C 54.916778564453125 29.110000610351562 53.926780700683594 29.84666633605957 52.640113830566406 30.399999618530273 C 54.32011413574219 30.773334503173828 55.633445739746094 31.420000076293945 56.58011245727539 32.34000015258789 C 57.52677917480469 33.266666412353516 58.00011444091797 34.37666702270508 58.00011444091797 35.66999816894531 C 58.00011444091797 36.56999969482422 57.780113220214844 37.42333221435547 57.340110778808594 38.22999954223633 C 56.906776428222656 39.03666687011719 56.313446044921875 39.746665954589844 55.56011199951172 40.36000061035156 C 54.813446044921875 40.96666717529297 53.950111389160156 41.45000076293945 52.97011184692383 41.810001373291016 C 51.98344421386719 42.16999816894531 50.950111389160156 42.349998474121094 49.870113372802734 42.349998474121094 C 49.10344696044922 42.349998474121094 48.35344696044922 42.290000915527344 47.620113372802734 42.16999816894531 C 46.88011169433594 42.05666732788086 46.07011413574219 42 45.19011306762695 42 M 46.75011444091797 31.68000030517578 L 46.610111236572266 38.15999984741211 C 46.610111236572266 39.03333282470703 46.90678024291992 39.65666580200195 47.50011444091797 40.029998779296875 C 48.08677673339844 40.39666748046875 49.106781005859375 40.58000183105469 50.56011199951172 40.58000183105469 C 51.94677734375 40.58000183105469 53.036781311035156 40.19333267211914 53.83011245727539 39.41999816894531 C 54.623443603515625 38.64666748046875 55.020111083984375 37.60333251953125 55.020111083984375 36.290000915527344 C 55.020111083984375 35.0433349609375 54.63011169433594 34.02000045776367 53.85011291503906 33.220001220703125 C 53.063446044921875 32.426666259765625 51.89677810668945 31.893333435058594 50.35011291503906 31.619998931884766 L 46.75011444091797 31.68000030517578 M 46.82011413574219 29.850000381469727 C 47.44677734375 29.89666748046875 48.01344680786133 29.94333267211914 48.520111083984375 29.989999771118164 C 48.95344543457031 30.036666870117188 49.373443603515625 30.06999969482422 49.780113220214844 30.09000015258789 C 50.1867790222168 30.116666793823242 50.45677947998047 30.130001068115234 50.590110778808594 30.130001068115234 C 51.19011306762695 29.963333129882812 51.73344421386719 29.68666648864746 52.22011184692383 29.299999237060547 C 52.61344528198242 28.97333335876465 52.98344421386719 28.523334503173828 53.33011245727539 27.950000762939453 C 53.676780700683594 27.369998931884766 53.85011291503906 26.606666564941406 53.85011291503906 25.65999984741211 C 53.85011291503906 24.15999984741211 53.360111236572266 23.059999465942383 52.38011169433594 22.360000610351562 C 51.40011215209961 21.65333366394043 49.860111236572266 21.299999237060547 47.76011276245117 21.299999237060547 C 47.50011444091797 21.299999237060547 47.33677673339844 21.35333251953125 47.270111083984375 21.459999084472656 C 47.20344543457031 21.559999465942383 47.15678024291992 21.773332595825195 47.13011169433594 22.100000381469727 C 47.063446044921875 23.226667404174805 47.006778717041016 24.43666648864746 46.960113525390625 25.729999542236328 C 46.91344451904297 27.023334503173828 46.86677932739258 28.39666748046875 46.82011413574219 29.850000381469727 ZM 69.77228546142578 31.889999389648438 C 69.77228546142578 30.71666717529297 69.505615234375 29.810001373291016 68.97228240966797 29.170000076293945 C 68.43894958496094 28.536666870117188 67.68894958496094 28.220001220703125 66.72228240966797 28.220001220703125 C 66.14228057861328 28.220001220703125 65.6122817993164 28.31333351135254 65.13228607177734 28.5 C 64.64561462402344 28.68666648864746 64.20561218261719 28.883333206176758 63.81228256225586 29.09000015258789 C 63.372283935546875 29.343334197998047 62.95895004272461 29.630001068115234 62.57228088378906 29.950000762939453 L 62.39228439331055 29.850000381469727 L 61.98228454589844 28.360000610351562 C 62.76228332519531 27.920000076293945 63.51228332519531 27.516666412353516 64.23228454589844 27.149999618530273 C 64.83228302001953 26.850000381469727 65.4489517211914 26.573333740234375 66.08228302001953 26.31999969482422 C 66.71561431884766 26.066665649414062 67.22895050048828 25.940000534057617 67.62228393554688 25.940000534057617 C 69.14228057861328 25.940000534057617 70.32561492919922 26.333332061767578 71.17228698730469 27.119998931884766 C 72.01228332519531 27.899999618530273 72.43228149414062 28.993331909179688 72.43228149414062 30.399999618530273 C 72.43228149414062 30.726665496826172 72.3989486694336 31.22333335876465 72.33228302001953 31.889999389648438 C 72.25894927978516 32.563331604003906 72.18894958496094 33.296669006347656 72.12228393554688 34.09000015258789 C 72.05561828613281 34.883331298828125 71.9856185913086 35.66666793823242 71.91228485107422 36.439998626708984 C 71.84561920166016 37.21333312988281 71.81228637695312 37.856666564941406 71.81228637695312 38.369998931884766 C 71.81228637695312 39.43000030517578 72.28561401367188 39.959999084472656 73.23228454589844 39.959999084472656 C 73.505615234375 39.959999084472656 73.76895141601562 39.91999816894531 74.02228546142578 39.84000015258789 C 74.27561950683594 39.7599983215332 74.49561309814453 39.65999984741211 74.68228149414062 39.540000915527344 C 74.91561889648438 39.426666259765625 75.12228393554688 39.27666473388672 75.30228424072266 39.09000015258789 L 75.79228210449219 39.650001525878906 C 75.51228332519531 40.063331604003906 75.22228240966797 40.45333480834961 74.92228698730469 40.81999969482422 C 74.6489486694336 41.14666748046875 74.33228302001953 41.459999084472656 73.97228240966797 41.7599983215332 C 73.6122817993164 42.060001373291016 73.21561431884766 42.279998779296875 72.78227996826172 42.41999816894531 C 70.88894653320312 42.41999816894531 69.8622817993164 41.483333587646484 69.70228576660156 39.61000061035156 L 69.56228637695312 39.58000183105469 C 68.72895050048828 40.40666580200195 67.97228240966797 41.063331604003906 67.29228210449219 41.54999923706055 C 66.6122817993164 42.03666687011719 66.09895324707031 42.279998779296875 65.75228118896484 42.279998779296875 C 65.1056137084961 42.279998779296875 64.51228332519531 42.176666259765625 63.97228240966797 41.970001220703125 C 63.42561721801758 41.75666809082031 62.95895004272461 41.459999084472656 62.57228088378906 41.08000183105469 C 62.17894744873047 40.70000076293945 61.872283935546875 40.246665954589844 61.65228271484375 39.720001220703125 C 61.432281494140625 39.186668395996094 61.32228088378906 38.606666564941406 61.32228088378906 37.97999954223633 C 61.32228088378906 37.313331604003906 61.488948822021484 36.72666549682617 61.82228088378906 36.220001220703125 C 62.155616760253906 35.71333312988281 62.59894943237305 35.380001068115234 63.15228271484375 35.220001220703125 L 69.70228576660156 33.41999816894531 L 69.77228546142578 31.889999389648438 M 69.63227844238281 34.72999954223633 L 64.95228576660156 36.150001525878906 C 64.28561401367188 36.356666564941406 63.9522819519043 36.84000015258789 63.9522819519043 37.599998474121094 C 63.9522819519043 38.27333450317383 64.17894744873047 38.83000183105469 64.63228607177734 39.27000045776367 C 65.07894897460938 39.70333480834961 65.6489486694336 39.91999816894531 66.34228515625 39.91999816894531 C 66.78227996826172 39.91999816894531 67.29561614990234 39.766666412353516 67.88228607177734 39.459999084472656 C 68.46894836425781 39.14666748046875 69.005615234375 38.746665954589844 69.49227905273438 38.2599983215332 L 69.63227844238281 34.72999954223633 ZM 87.28053283691406 41 C 87.97386932373047 40.813331604003906 88.47053527832031 40.540000915527344 88.7705307006836 40.18000030517578 C 89.0705337524414 39.82666778564453 89.22053527832031 39.349998474121094 89.22053527832031 38.75 L 89.36053466796875 31.889999389648438 C 89.36053466796875 30.73666763305664 89.11053466796875 29.850000381469727 88.61053466796875 29.229999542236328 C 88.11720275878906 28.60333251953125 87.40719604492188 28.290000915527344 86.48052978515625 28.290000915527344 C 86.06719970703125 28.290000915527344 85.64053344726562 28.360000610351562 85.20053100585938 28.5 C 84.76719665527344 28.639999389648438 84.3572006225586 28.80666732788086 83.97053527832031 29 C 83.59053039550781 29.200000762939453 83.24720001220703 29.39666748046875 82.94053649902344 29.59000015258789 C 82.627197265625 29.78333282470703 82.39053344726562 29.950000762939453 82.23052978515625 30.09000015258789 C 82.20386505126953 30.689998626708984 82.17386627197266 31.406665802001953 82.14053344726562 32.23999786376953 C 82.1072006225586 33.06666564941406 82.07386779785156 33.89666748046875 82.04053497314453 34.72999954223633 C 82.00053405761719 35.563331604003906 81.97053527832031 36.33000183105469 81.95053100585938 37.029998779296875 C 81.92386627197266 37.73666763305664 81.91053009033203 38.26333236694336 81.91053009033203 38.61000061035156 C 81.91053009033203 39.323333740234375 82.00386810302734 39.823333740234375 82.19053649902344 40.11000061035156 C 82.377197265625 40.4033317565918 82.70053100585938 40.54999923706055 83.16053009033203 40.54999923706055 C 83.27386474609375 40.54999923706055 83.4005355834961 40.54999923706055 83.54053497314453 40.54999923706055 C 83.68053436279297 40.54999923706055 83.80719757080078 40.53666687011719 83.9205322265625 40.5099983215332 C 84.06053161621094 40.5099983215332 84.21053314208984 40.5 84.37052917480469 40.47999954223633 L 84.44053649902344 40.619998931884766 L 84.13053131103516 42.099998474121094 C 83.76386260986328 42.099998474121094 83.39386749267578 42.09000015258789 83.0205307006836 42.06999969482422 C 82.70053100585938 42.0433349609375 82.36053466796875 42.026668548583984 82.00053405761719 42.02000045776367 C 81.64053344726562 42.00666809082031 81.30052947998047 42 80.98052978515625 42 C 80.6138687133789 42 80.22720336914062 42.0099983215332 79.8205337524414 42.029998779296875 C 79.41386413574219 42.05666732788086 79.05052947998047 42.08000183105469 78.73052978515625 42.099998474121094 C 78.31719970703125 42.14666748046875 77.92386627197266 42.18333435058594 77.55052947998047 42.209999084472656 L 77.73052978515625 40.790000915527344 C 78.39720153808594 40.676666259765625 78.87052917480469 40.470001220703125 79.1505355834961 40.16999816894531 C 79.42386627197266 39.869998931884766 79.56053161621094 39.39666748046875 79.56053161621094 38.75 L 79.56053161621094 30.299999237060547 C 79.56053161621094 29.51333236694336 79.43386840820312 28.96666717529297 79.18053436279297 28.65999984741211 C 78.92720031738281 28.34666633605957 78.48719787597656 28.189998626708984 77.86053466796875 28.189998626708984 L 77.48052978515625 28.189998626708984 L 77.38053131103516 28.049999237060547 L 77.48052978515625 26.90999984741211 C 78.08053588867188 26.816665649414062 78.6705322265625 26.713333129882812 79.25053405761719 26.600000381469727 C 79.82386779785156 26.479999542236328 80.34386444091797 26.36333465576172 80.81053161621094 26.25 C 81.33719635009766 26.13666534423828 81.84386444091797 26.020000457763672 82.33053588867188 25.899999618530273 L 82.54053497314453 26.18000030517578 C 82.46720123291016 26.38666534423828 82.40719604492188 26.616666793823242 82.36053466796875 26.869998931884766 C 82.3205337524414 27.07666778564453 82.28053283691406 27.31999969482422 82.24053192138672 27.600000381469727 C 82.20719909667969 27.880001068115234 82.18053436279297 28.170000076293945 82.16053009033203 28.470001220703125 L 82.23052978515625 28.56999969482422 C 82.43720245361328 28.43000030517578 82.76386260986328 28.21666717529297 83.21053314208984 27.93000030517578 C 83.66386413574219 27.643333435058594 84.1505355834961 27.350000381469727 84.6705322265625 27.049999237060547 C 85.19053649902344 26.75 85.69053649902344 26.489999771118164 86.1705322265625 26.270000457763672 C 86.65719604492188 26.049999237060547 87.03720092773438 25.940000534057617 87.31053161621094 25.940000534057617 C 88.7705307006836 25.940000534057617 89.92720031738281 26.336666107177734 90.78053283691406 27.130001068115234 C 91.63386535644531 27.93000030517578 92.06053161621094 29.020000457763672 92.06053161621094 30.399999618530273 C 92.06053161621094 30.700000762939453 92.03720092773438 31.203332901000977 91.99053192138672 31.90999984741211 C 91.94386291503906 32.616668701171875 91.88386535644531 33.383331298828125 91.81053161621094 34.209999084472656 C 91.74386596679688 35.0433349609375 91.68720245361328 35.856666564941406 91.64053344726562 36.650001525878906 C 91.59386444091797 37.45000076293945 91.5705337524414 38.10333251953125 91.5705337524414 38.61000061035156 C 91.5705337524414 39.9033317565918 91.97386932373047 40.54999923706055 92.78053283691406 40.54999923706055 C 92.9005355834961 40.54999923706055 93.0271987915039 40.54999923706055 93.16053009033203 40.54999923706055 C 93.300537109375 40.54999923706055 93.43053436279297 40.53666687011719 93.550537109375 40.5099983215332 C 93.68386840820312 40.5099983215332 93.8338623046875 40.5 94.00053405761719 40.47999954223633 L 94.06053161621094 40.619998931884766 L 93.79053497314453 42.099998474121094 C 93.44386291503906 42.099998474121094 93.0838623046875 42.09000015258789 92.71053314208984 42.06999969482422 C 92.39053344726562 42.0433349609375 92.05719757080078 42.026668548583984 91.71053314208984 42.02000045776367 C 91.3638687133789 42.00666809082031 91.03053283691406 42 90.71053314208984 42 C 90.33719635009766 42 89.94386291503906 42.02333450317383 89.53053283691406 42.06999969482422 C 89.11720275878906 42.11666488647461 88.73719787597656 42.163333892822266 88.39053344726562 42.209999084472656 C 87.97053527832031 42.276668548583984 87.55386352539062 42.3466682434082 87.14053344726562 42.41999816894531 L 87.28053283691406 41 ZM 96.6613540649414 40.790000915527344 C 97.12135314941406 40.71666717529297 97.47801971435547 40.606666564941406 97.73135375976562 40.459999084472656 C 97.98468780517578 40.30666732788086 98.16802215576172 40.09333419799805 98.28135681152344 39.81999969482422 C 98.40135192871094 39.540000915527344 98.46468353271484 39.20000076293945 98.47135162353516 38.79999923706055 C 98.48468780517578 38.393333435058594 98.4913558959961 37.9033317565918 98.4913558959961 37.33000183105469 L 98.4913558959961 20.329999923706055 C 98.4913558959961 19.08333396911621 98.06468963623047 18.459999084472656 97.21135711669922 18.459999084472656 C 97.05135345458984 18.459999084472656 96.85469055175781 18.483333587646484 96.62135314941406 18.530000686645508 C 96.52802276611328 18.55666732788086 96.43801879882812 18.579999923706055 96.35135650634766 18.600000381469727 C 96.35135650634766 18.486665725708008 96.35469055175781 18.383333206176758 96.3613510131836 18.290000915527344 C 96.37468719482422 18.196666717529297 96.391357421875 18.093334197998047 96.4113540649414 17.979999542236328 L 96.48135375976562 17.31999969482422 C 97.08135223388672 17.253334045410156 97.68801879882812 17.15999984741211 98.30135345458984 17.040000915527344 C 98.91468811035156 16.926666259765625 99.46468353271484 16.81333351135254 99.95135498046875 16.700000762939453 C 100.52468872070312 16.579999923706055 101.07801818847656 16.453332901000977 101.6113510131836 16.31999969482422 L 101.81135559082031 16.770000457763672 C 101.74468994140625 16.883333206176758 101.67135620117188 17.266666412353516 101.59135437011719 17.920000076293945 C 101.5113525390625 18.579999923706055 101.43135070800781 19.43000030517578 101.35135650634766 20.469999313354492 C 101.27135467529297 21.510000228881836 101.20135498046875 22.71666717529297 101.141357421875 24.09000015258789 C 101.08135223388672 25.463333129882812 101.02802276611328 26.933334350585938 100.98135375976562 28.5 C 100.93468475341797 30.066665649414062 100.90135192871094 31.709999084472656 100.88135528564453 33.43000030517578 C 100.8613510131836 35.150001525878906 100.85135650634766 36.87666702270508 100.85135650634766 38.61000061035156 C 100.85135650634766 39.323333740234375 100.94135284423828 39.823333740234375 101.12135314941406 40.11000061035156 C 101.30802154541016 40.4033317565918 101.63135528564453 40.54999923706055 102.09135437011719 40.54999923706055 C 102.2046890258789 40.54999923706055 102.33135223388672 40.54999923706055 102.47135162353516 40.54999923706055 C 102.6113510131836 40.54999923706055 102.73802185058594 40.53666687011719 102.85135650634766 40.5099983215332 C 102.9913558959961 40.5099983215332 103.141357421875 40.5 103.30135345458984 40.47999954223633 L 103.37135314941406 40.619998931884766 L 103.06135559082031 42.099998474121094 C 102.69468688964844 42.099998474121094 102.3246841430664 42.09000015258789 101.95135498046875 42.06999969482422 C 101.63135528564453 42.0433349609375 101.29135131835938 42.026668548583984 100.93135070800781 42.02000045776367 C 100.57801818847656 42.00666809082031 100.23802185058594 42 99.9113540649414 42 C 99.54468536376953 42 99.15802001953125 42.0099983215332 98.75135040283203 42.029998779296875 C 98.35135650634766 42.05666732788086 97.98802185058594 42.08000183105469 97.6613540649414 42.099998474121094 C 97.2480239868164 42.14666748046875 96.85469055175781 42.18333435058594 96.48135375976562 42.209999084472656 L 96.6613540649414 40.790000915527344 M 101.71135711669922 33.76000213623047 L 101.78135681152344 33.279998779296875 L 106.00135803222656 29.399999618530273 C 106.32801818847656 29.100000381469727 106.54801940917969 28.869998931884766 106.6613540649414 28.709999084472656 C 106.77468872070312 28.549999237060547 106.83135223388672 28.376667022705078 106.83135223388672 28.189998626708984 C 106.83135223388672 27.93666648864746 106.68135070800781 27.75 106.38135528564453 27.630001068115234 C 106.08135223388672 27.516666412353516 105.5980224609375 27.459999084472656 104.93135070800781 27.459999084472656 L 104.83135223388672 27.290000915527344 L 105.141357421875 26.279998779296875 C 105.53468322753906 26.30666732788086 105.93801879882812 26.31999969482422 106.35135650634766 26.31999969482422 C 106.6980209350586 26.34000015258789 107.06802368164062 26.350000381469727 107.46134948730469 26.350000381469727 C 107.85469055175781 26.350000381469727 108.21134948730469 26.350000381469727 108.53135681152344 26.350000381469727 C 108.85135650634766 26.350000381469727 109.20802307128906 26.34666633605957 109.60135650634766 26.34000015258789 C 109.99468994140625 26.32666778564453 110.35469055175781 26.296667098999023 110.68135070800781 26.25 C 111.06802368164062 26.229999542236328 111.4480209350586 26.196666717529297 111.82135009765625 26.149999618530273 L 111.92135620117188 26.31999969482422 L 111.65135192871094 27.389999389648438 C 111.02468872070312 27.57666778564453 110.39468383789062 27.883333206176758 109.7613525390625 28.310001373291016 C 109.12802124023438 28.73666763305664 108.49801635742188 29.220001220703125 107.87135314941406 29.760000228881836 C 107.25135803222656 30.30666732788086 106.641357421875 30.883333206176758 106.04135131835938 31.489999771118164 C 105.44135284423828 32.10333251953125 104.85135650634766 32.686668395996094 104.27135467529297 33.23999786376953 L 107.9113540649414 37.91999816894531 C 108.718017578125 38.95333480834961 109.43801879882812 39.68333435058594 110.07135009765625 40.11000061035156 C 110.7046890258789 40.53666687011719 111.38135528564453 40.75 112.10135650634766 40.75 L 112.20135498046875 40.93000030517578 L 111.9913558959961 41.93000030517578 C 111.62468719482422 42.02333450317383 111.26802062988281 42.11666488647461 110.92135620117188 42.209999084472656 C 110.62135314941406 42.276668548583984 110.32801818847656 42.34000015258789 110.04135131835938 42.400001525878906 C 109.74801635742188 42.45333480834961 109.54468536376953 42.47999954223633 109.43135070800781 42.47999954223633 C 109.1980209350586 42.47999954223633 108.98468780517578 42.4466667175293 108.79135131835938 42.380001068115234 C 108.5980224609375 42.313331604003906 108.40802001953125 42.233333587646484 108.22135162353516 42.13999938964844 C 107.8480224609375 41.95333480834961 107.48468780517578 41.65999984741211 107.13135528564453 41.2599983215332 C 106.77135467529297 40.85333251953125 106.32801818847656 40.279998779296875 105.80135345458984 39.540000915527344 L 101.71135711669922 33.76000213623047 Z" transform="matrix(1.0078848600387573, 0, 0, 1.0078848600387573, -16.492664337158203, -13.224346160888672)" style="fill: rgb(11, 11, 11); white-space: pre; color: rgb(255, 255, 255);"/></svg>